<mxfile host="app.diagrams.net" modified="2024-03-05T15:18:52.799Z" agent="Mozilla/5.0 (Windows NT 10.0; Win64; x64) AppleWebKit/537.36 (KHTML, like Gecko) Chrome/121.0.0.0 Safari/537.36 OPR/107.0.0.0" etag="e6bM4EJ57e1MF_H5wsZn" version="24.0.1" type="device">
  <diagram name="Page-1" id="ARvwwZHmxUtVStztkptg">
    <mxGraphModel dx="2220" dy="758" grid="1" gridSize="10" guides="1" tooltips="1" connect="1" arrows="1" fold="1" page="1" pageScale="1" pageWidth="827" pageHeight="1169" math="0" shadow="0">
      <root>
        <mxCell id="0" />
        <mxCell id="1" parent="0" />
        <mxCell id="B4heGAm6loS7uy85LJ3E-7" value="" style="rounded=0;whiteSpace=wrap;html=1;" vertex="1" parent="1">
          <mxGeometry x="321.75" y="110" width="560" height="270" as="geometry" />
        </mxCell>
        <mxCell id="B4heGAm6loS7uy85LJ3E-8" value="" style="rounded=0;whiteSpace=wrap;html=1;" vertex="1" parent="1">
          <mxGeometry x="322" y="400" width="560" height="230" as="geometry" />
        </mxCell>
        <mxCell id="B4heGAm6loS7uy85LJ3E-13" value="" style="outlineConnect=0;dashed=0;verticalLabelPosition=bottom;verticalAlign=top;align=center;html=1;shape=mxgraph.aws3.permissions;fillColor=#759C3E;gradientColor=none;" vertex="1" parent="1">
          <mxGeometry x="321.75" y="110" width="38" height="50" as="geometry" />
        </mxCell>
        <mxCell id="B4heGAm6loS7uy85LJ3E-20" value="Public subnet 10.0.1.0/24" style="points=[[0,0],[0.25,0],[0.5,0],[0.75,0],[1,0],[1,0.25],[1,0.5],[1,0.75],[1,1],[0.75,1],[0.5,1],[0.25,1],[0,1],[0,0.75],[0,0.5],[0,0.25]];outlineConnect=0;gradientColor=none;html=1;whiteSpace=wrap;fontSize=12;fontStyle=0;container=1;pointerEvents=0;collapsible=0;recursiveResize=0;shape=mxgraph.aws4.group;grIcon=mxgraph.aws4.group_security_group;grStroke=0;strokeColor=#7AA116;fillColor=#F2F6E8;verticalAlign=top;align=left;spacingLeft=30;fontColor=#248814;dashed=0;" vertex="1" parent="1">
          <mxGeometry x="322" y="110" width="558" height="270" as="geometry" />
        </mxCell>
        <mxCell id="B4heGAm6loS7uy85LJ3E-22" value="Security group" style="fillColor=none;strokeColor=#DD3522;verticalAlign=top;fontStyle=0;fontColor=#DD3522;whiteSpace=wrap;html=1;" vertex="1" parent="B4heGAm6loS7uy85LJ3E-20">
          <mxGeometry x="183" y="47.75" width="130" height="130" as="geometry" />
        </mxCell>
        <mxCell id="B4heGAm6loS7uy85LJ3E-24" value="" style="sketch=0;outlineConnect=0;fontColor=#232F3E;gradientColor=none;fillColor=#8C4FFF;strokeColor=none;dashed=0;verticalLabelPosition=bottom;verticalAlign=top;align=center;html=1;fontSize=12;fontStyle=0;aspect=fixed;pointerEvents=1;shape=mxgraph.aws4.nat_gateway;" vertex="1" parent="B4heGAm6loS7uy85LJ3E-20">
          <mxGeometry x="38" y="140" width="78" height="78" as="geometry" />
        </mxCell>
        <mxCell id="B4heGAm6loS7uy85LJ3E-37" value="Application WEB" style="text;html=1;align=center;verticalAlign=middle;whiteSpace=wrap;rounded=0;" vertex="1" parent="B4heGAm6loS7uy85LJ3E-20">
          <mxGeometry x="193" y="140" width="110" height="30" as="geometry" />
        </mxCell>
        <mxCell id="B4heGAm6loS7uy85LJ3E-3" value="" style="outlineConnect=0;dashed=0;verticalLabelPosition=bottom;verticalAlign=top;align=center;html=1;shape=mxgraph.aws3.ec2_compute_container_3;fillColor=#F58534;gradientColor=none;" vertex="1" parent="1">
          <mxGeometry x="540" y="205.5" width="60" height="34.5" as="geometry" />
        </mxCell>
        <mxCell id="B4heGAm6loS7uy85LJ3E-21" value="Private subnet 10.0.2.0/24" style="points=[[0,0],[0.25,0],[0.5,0],[0.75,0],[1,0],[1,0.25],[1,0.5],[1,0.75],[1,1],[0.75,1],[0.5,1],[0.25,1],[0,1],[0,0.75],[0,0.5],[0,0.25]];outlineConnect=0;gradientColor=none;html=1;whiteSpace=wrap;fontSize=12;fontStyle=0;container=1;pointerEvents=0;collapsible=0;recursiveResize=0;shape=mxgraph.aws4.group;grIcon=mxgraph.aws4.group_security_group;grStroke=0;strokeColor=#00A4A6;fillColor=#E6F6F7;verticalAlign=top;align=left;spacingLeft=30;fontColor=#147EBA;dashed=0;" vertex="1" parent="1">
          <mxGeometry x="322" y="400" width="558" height="230" as="geometry" />
        </mxCell>
        <mxCell id="B4heGAm6loS7uy85LJ3E-4" value="" style="outlineConnect=0;dashed=0;verticalLabelPosition=bottom;verticalAlign=top;align=center;html=1;shape=mxgraph.aws3.ec2_compute_container_3;fillColor=#F58534;gradientColor=none;" vertex="1" parent="1">
          <mxGeometry x="540" y="492.75" width="60" height="34.5" as="geometry" />
        </mxCell>
        <mxCell id="B4heGAm6loS7uy85LJ3E-23" value="Security group" style="fillColor=none;strokeColor=#DD3522;verticalAlign=top;fontStyle=0;fontColor=#DD3522;whiteSpace=wrap;html=1;" vertex="1" parent="1">
          <mxGeometry x="505" y="445" width="130" height="130" as="geometry" />
        </mxCell>
        <mxCell id="B4heGAm6loS7uy85LJ3E-25" value="" style="outlineConnect=0;dashed=0;verticalLabelPosition=bottom;verticalAlign=top;align=center;html=1;shape=mxgraph.aws3.internet_3;fillColor=#D2D3D3;gradientColor=none;" vertex="1" parent="1">
          <mxGeometry x="30" y="186" width="79.5" height="54" as="geometry" />
        </mxCell>
        <mxCell id="B4heGAm6loS7uy85LJ3E-26" value="" style="sketch=0;aspect=fixed;pointerEvents=1;shadow=0;dashed=0;html=1;strokeColor=none;labelPosition=center;verticalLabelPosition=bottom;verticalAlign=top;align=center;fillColor=#00188D;shape=mxgraph.azure.user" vertex="1" parent="1">
          <mxGeometry x="-160" y="190" width="47" height="50" as="geometry" />
        </mxCell>
        <mxCell id="B4heGAm6loS7uy85LJ3E-27" value="Virtual private cloud (VPC) 10.0.0.0/16" style="points=[[0,0],[0.25,0],[0.5,0],[0.75,0],[1,0],[1,0.25],[1,0.5],[1,0.75],[1,1],[0.75,1],[0.5,1],[0.25,1],[0,1],[0,0.75],[0,0.5],[0,0.25]];outlineConnect=0;gradientColor=none;html=1;whiteSpace=wrap;fontSize=12;fontStyle=0;container=1;pointerEvents=0;collapsible=0;recursiveResize=0;shape=mxgraph.aws4.group;grIcon=mxgraph.aws4.group_vpc2;strokeColor=#8C4FFF;fillColor=none;verticalAlign=top;align=left;spacingLeft=30;fontColor=#AAB7B8;dashed=0;" vertex="1" parent="1">
          <mxGeometry x="280" y="40" width="640" height="640" as="geometry" />
        </mxCell>
        <mxCell id="B4heGAm6loS7uy85LJ3E-35" value="Amazon VPC &lt;br&gt;NAT Gateway" style="text;html=1;align=center;verticalAlign=middle;whiteSpace=wrap;rounded=0;" vertex="1" parent="B4heGAm6loS7uy85LJ3E-27">
          <mxGeometry x="120" y="280" width="100" height="50" as="geometry" />
        </mxCell>
        <mxCell id="B4heGAm6loS7uy85LJ3E-36" value="Debian Server (SSH)" style="text;html=1;align=center;verticalAlign=middle;whiteSpace=wrap;rounded=0;" vertex="1" parent="B4heGAm6loS7uy85LJ3E-27">
          <mxGeometry x="240" y="500" width="100" height="30" as="geometry" />
        </mxCell>
        <mxCell id="B4heGAm6loS7uy85LJ3E-29" value="" style="endArrow=none;html=1;rounded=0;exitX=1;exitY=0.7;exitDx=0;exitDy=0;exitPerimeter=0;entryX=0;entryY=0.5;entryDx=0;entryDy=0;" edge="1" parent="1" source="B4heGAm6loS7uy85LJ3E-25" target="B4heGAm6loS7uy85LJ3E-22">
          <mxGeometry width="50" height="50" relative="1" as="geometry">
            <mxPoint x="390" y="420" as="sourcePoint" />
            <mxPoint x="440" y="370" as="targetPoint" />
          </mxGeometry>
        </mxCell>
        <mxCell id="B4heGAm6loS7uy85LJ3E-30" value="" style="endArrow=none;html=1;rounded=0;entryX=0.5;entryY=1;entryDx=0;entryDy=0;exitX=0.5;exitY=0;exitDx=0;exitDy=0;" edge="1" parent="1" source="B4heGAm6loS7uy85LJ3E-23" target="B4heGAm6loS7uy85LJ3E-22">
          <mxGeometry width="50" height="50" relative="1" as="geometry">
            <mxPoint x="390" y="420" as="sourcePoint" />
            <mxPoint x="440" y="370" as="targetPoint" />
          </mxGeometry>
        </mxCell>
        <mxCell id="B4heGAm6loS7uy85LJ3E-32" value="" style="endArrow=classic;html=1;rounded=0;exitX=0;exitY=0.5;exitDx=0;exitDy=0;" edge="1" parent="1" source="B4heGAm6loS7uy85LJ3E-23" target="B4heGAm6loS7uy85LJ3E-24">
          <mxGeometry width="50" height="50" relative="1" as="geometry">
            <mxPoint x="390" y="420" as="sourcePoint" />
            <mxPoint x="440" y="370" as="targetPoint" />
            <Array as="points">
              <mxPoint x="399" y="510" />
            </Array>
          </mxGeometry>
        </mxCell>
        <mxCell id="B4heGAm6loS7uy85LJ3E-33" value="" style="endArrow=classic;html=1;rounded=0;entryX=0.5;entryY=1;entryDx=0;entryDy=0;entryPerimeter=0;" edge="1" parent="1" source="B4heGAm6loS7uy85LJ3E-24" target="B4heGAm6loS7uy85LJ3E-25">
          <mxGeometry width="50" height="50" relative="1" as="geometry">
            <mxPoint x="390" y="420" as="sourcePoint" />
            <mxPoint x="440" y="370" as="targetPoint" />
            <Array as="points">
              <mxPoint x="240" y="280" />
              <mxPoint x="200" y="240" />
            </Array>
          </mxGeometry>
        </mxCell>
        <mxCell id="B4heGAm6loS7uy85LJ3E-34" value="" style="endArrow=classic;html=1;rounded=0;entryX=0;entryY=0.7;entryDx=0;entryDy=0;entryPerimeter=0;exitX=0.87;exitY=0.65;exitDx=0;exitDy=0;exitPerimeter=0;" edge="1" parent="1" source="B4heGAm6loS7uy85LJ3E-26" target="B4heGAm6loS7uy85LJ3E-25">
          <mxGeometry width="50" height="50" relative="1" as="geometry">
            <mxPoint x="-90" y="224" as="sourcePoint" />
            <mxPoint x="440" y="370" as="targetPoint" />
          </mxGeometry>
        </mxCell>
      </root>
    </mxGraphModel>
  </diagram>
</mxfile>
